<svg width="181" height="43" viewBox="0 0 181 43" fill="none" xmlns="http://www.w3.org/2000/svg">
<path d="M25.2793 0V42.4625H38.9302V35.475H32.8631V0H25.2793Z" fill="#705656"/>
<path d="M42.4693 0V39.2375L45.5028 42.4625H59.1536L61.6816 39.2375V0H54.0978V35.475H50.0531V0H42.4693Z" fill="#705656"/>
<path d="M65.7262 0V42.4625H72.8045V24.1875L77.3547 39.2375L81.905 24.1875V42.4625H89.4888V0H81.905L77.3547 17.2L72.8045 0H65.7262Z" fill="#705656"/>
<path fill-rule="evenodd" clip-rule="evenodd" d="M98.5894 0H107.184L113.251 42.4625H107.184V37.625H98.5894V42.4625H91.5112L98.5894 0ZM100.106 31.175L102.634 17.2L104.656 31.175H100.106Z" fill="#705656"/>
<path fill-rule="evenodd" clip-rule="evenodd" d="M134.486 3.7625L137.52 0H150.665L152.687 3.7625V39.2375L150.665 43H137.014L134.486 39.2375V3.7625ZM142.07 35.475V8.0625H145.609V35.475H142.07Z" fill="#3F4E65"/>
<path d="M128.925 0L130.947 8.0625H123.363V35.475H128.925V42.4625H118.813L115.274 39.2375V3.7625L118.813 0H128.925Z" fill="#3F4E65"/>
<path d="M157.237 0.5375V43H164.316V24.725L168.866 39.775L173.416 24.725V43H181V0.5375H173.416L168.866 17.7375L164.316 0.5375H157.237Z" fill="#3F4E65"/>
<path fill-rule="evenodd" clip-rule="evenodd" d="M7.07821 0H15.6732L21.7402 42.4625H15.6732V37.625H7.07821V42.4625H0L7.07821 0ZM9.10056 31.175L11.6285 17.2L13.6508 31.175H9.10056Z" fill="#705656"/>
</svg>
